<?xml version="1.0" ?><svg height="64" id="svg8" version="1.1" viewBox="0 0 16.933333 16.933333" width="64" xmlns="http://www.w3.org/2000/svg" xmlns:cc="http://creativecommons.org/ns#" xmlns:dc="http://purl.org/dc/elements/1.1/" xmlns:inkscape="http://www.inkscape.org/namespaces/inkscape" xmlns:rdf="http://www.w3.org/1999/02/22-rdf-syntax-ns#" xmlns:sodipodi="http://sodipodi.sourceforge.net/DTD/sodipodi-0.dtd" xmlns:svg="http://www.w3.org/2000/svg"><defs id="defs2"/><g id="layer2"><path d="m 6.1598343,3.0657418 c -0.5092501,0 -0.996679,0.09055 -1.4515912,0.250631 0.191262,-0.02358 0.3849553,-0.03979 0.5823943,-0.03979 2.6186798,-4e-6 4.7591076,2.135979 4.7635336,4.7547489 a 0.52921957,0.52921957 0 0 1 0,0.00101 v 2.5915723 c 0.171904,-0.301966 0.352078,-0.619207 0.494027,-0.8650674 0.02285,-0.03981 0.03496,-0.08485 0.03514,-0.130747 V 7.4814608 c -0.0041,-2.436991 -1.9865079,-4.415754 -4.4235037,-4.415751 z m -0.8691969,0.740007 c -2.3348721,0 -4.2323001,1.899495 -4.2323001,4.234367 0,2.3348712 1.897428,4.2322982 4.2323001,4.2322982 6.879e-4,3e-6 0.0014,3e-6 0.00209,0 1.0570958,-0.0033 2.3796309,0 3.3749879,0 0.4539278,0 0.8573118,-0.337429 0.8573118,-0.788582 V 8.0323638 C 9.5211372,5.7002758 7.6227621,3.8057448 5.2906702,3.8057488 Z M 5.1604123,6.2154209 c 1.0928059,0 1.984375,0.8915688 1.984375,1.9843749 0,1.0928059 -0.8915691,1.9843742 -1.984375,1.9843742 -1.0928061,0 -1.984375,-0.8915683 -1.984375,-1.9843742 0,-1.0928061 0.8915689,-1.9843749 1.984375,-1.9843749 z m 0,0.5291669 c -0.806823,0 -1.455208,0.648385 -1.455208,1.455208 0,0.8068231 0.648385,1.4552078 1.455208,1.4552078 0.8068228,0 1.4546919,-0.6483847 1.4546919,-1.4552078 0,-0.806823 -0.6478691,-1.455208 -1.4546919,-1.455208 z m 5.9505417,2.9109328 c -0.0046,0.128845 -0.03962,0.254975 -0.103869,0.3669024 -1.72e-4,3.44e-4 -3.44e-4,6.88e-4 -5.29e-4,10e-4 -0.34979,0.603407 -0.639016,1.126465 -0.98702,1.753381 0.117155,0.0021 0.474852,-3.17e-4 0.672827,5.3e-4 l 0.842843,-1.460381 a 0.26460979,0.26460979 0 0 1 0.207222,-0.134875 0.26460979,0.26460979 0 0 1 0.02584,-0.001 0.26460979,0.26460979 0 0 1 0.225825,0.399459 l -0.692464,1.19786 c 0.274172,-6.6e-5 0.442447,0.0014 0.747758,5.29e-4 l 0.386023,-0.668693 a 0.26460979,0.26460979 0 0 1 0.207223,-0.134876 0.26460979,0.26460979 0 0 1 0.02945,-0.001 0.26460979,0.26460979 0 0 1 0.222209,0.401526 l -0.233062,0.402569 c 0.311421,-0.0012 0.481914,-0.002 0.749825,-0.0031 l 0.840776,-1.458309 a 0.26460979,0.26460979 0 0 1 0.207222,-0.134874 0.26460979,0.26460979 0 0 1 0.02584,-10e-4 0.26460979,0.26460979 0 0 1 0.225825,0.399458 l -0.689364,1.192676 c 0.142161,-5.02e-4 0.446168,-0.002 0.530717,-0.0021 0.09433,-2.91e-4 0.181347,-0.04518 0.22841,-0.117822 l 1.05885,-1.645378 c 0.101334,-0.1565094 -0.02529,-0.3517964 -0.22841,-0.3524324 z m 4.763534,1.2753734 -0.649056,1.008724 a 0.52921957,0.52921957 0 0 1 -10e-4,0.0016 c -0.154815,0.238956 -0.409559,0.358345 -0.67076,0.359151 a 0.52921957,0.52921957 0 0 1 -0.001,0 c -0.04208,3e-5 -0.208495,8.73e-4 -0.266134,10e-4 v 1.298112 c -0.0033,0.282164 0.378319,0.372863 0.502295,0.119373 l 1.058344,-2.117177 c 0.01804,-0.0365 0.0274,-0.07662 0.02739,-0.117305 z" id="path1852" style="opacity:1;fill:#000000;fill-opacity:1;stroke:none;stroke-width:0.52916664;stroke-linecap:round;stroke-linejoin:round;stroke-miterlimit:4;stroke-dasharray:none;stroke-dashoffset:0;stroke-opacity:1"/></g></svg>